<?xml version="1.0" encoding="utf-8"?>
<!-- Generator: Adobe Illustrator 16.0.0, SVG Export Plug-In . SVG Version: 6.00 Build 0)  -->
<!DOCTYPE svg PUBLIC "-//W3C//DTD SVG 1.1//EN" "http://www.w3.org/Graphics/SVG/1.1/DTD/svg11.dtd">
<svg version="1.1" id="Layer_1" xmlns="http://www.w3.org/2000/svg" xmlns:xlink="http://www.w3.org/1999/xlink" x="0px" y="0px"
	 width="252.875px" height="35.034px" viewBox="0 0 252.875 35.034" enable-background="new 0 0 252.875 35.034"
	 xml:space="preserve">
<circle fill="#277CB5" cx="200.129" cy="18.824" r="9.365"/>
<g>
	<path fill="#277CB5" d="M95.631,0.446c1.07,0,1.945,0.893,1.945,1.981c0,1.092-0.875,1.982-1.945,1.982
		c-1.072,0-1.95-0.89-1.95-1.982C93.682,1.338,94.56,0.446,95.631,0.446"/>
	<path fill="#277CB5" d="M114.372,10.134c-2.79-0.733-4.774-0.041-6.479,2.295v13.85h-3.892V5.991h3.892v2.607
		c1.664-2.256,3.852-2.871,6.479-2.435V10.134z"/>
	<rect x="93.682" y="5.989" fill="#277CB5" width="3.892" height="20.294"/>
	<path fill="#277CB5" d="M83.368,20.85v-3.947c-3.053,0-9.126-0.415-9.149,3.811C74.196,25.099,81.276,23.7,83.368,20.85
		 M70.239,20.896c0.042-6.929,7.922-7.04,13.126-7.04c-0.026-3.511-0.547-4.717-4.289-4.688c-2.575,0.021-4.063,0.48-4.442,3.281
		h-3.87c0.496-4.754,3.066-6.455,8.483-6.476c6.279-0.027,7.92,2.671,7.999,7.534v12.771h-3.878v-1.677
		C78.728,28.379,70.206,27.233,70.239,20.896z"/>
	<path fill="#A3A2A5" d="M72.126,31.197h41.041c1.033,0,1.885,0.862,1.885,1.917v0.002c0,1.057-0.852,1.916-1.885,1.916H72.126
		c-1.038,0-1.886-0.861-1.886-1.916v-0.002C70.239,32.06,71.088,31.197,72.126,31.197"/>
	<rect x="0.372" y="6.079" fill="#277CB5" width="7.456" height="28.955"/>
	<polygon fill="#277CB5" points="12.94,35.034 20.398,35.034 20.398,19.598 28.878,35.034 36.354,35.034 36.354,6.079 28.897,6.079 
		28.897,21.519 20.414,6.079 12.94,6.079 	"/>
	<path fill="#277CB5" d="M56.605,6.079c4.48,0,7.352,3.415,7.352,7.653c0,3.422-1.1,6.562-4.552,6.827
		c3.494,0.219,4.554,3.654,4.574,6.62c0.041,5.261-2.595,7.854-7.375,7.854H41.565v-7h1.901h0.018h12.129
		c2.677-0.138,2.674-3.985,0-4.124H41.565v-6.707h14.05c2.677-0.134,2.677-3.987,0-4.125c-4.683,0-9.367,0-14.05,0v-7h15.041V6.079z
		"/>
</g>
<g>
	<path fill="#0080C5" d="M128.476,18.965v-1.297h4.264v-2.333h1.531v2.333h5.714v1.297H128.476z M130.794,24.229
		c-0.792-0.474-1.187-1.073-1.187-1.801c0-0.726,0.394-1.326,1.181-1.8c0.786-0.474,1.924-0.71,3.415-0.71
		c1.49,0,2.633,0.237,3.43,0.71c0.795,0.475,1.193,1.075,1.193,1.8c0,0.728-0.395,1.327-1.186,1.801
		c-0.791,0.476-1.932,0.712-3.423,0.712C132.726,24.94,131.585,24.702,130.794,24.229z M138.785,12.699
		c-0.009,0.828-0.055,1.583-0.138,2.264c-0.083,0.681-0.179,1.325-0.29,1.933l-1.477-0.014c0.083-0.387,0.161-0.842,0.235-1.367
		c0.073-0.524,0.115-1.03,0.125-1.518h-7.535v-1.298H138.785z M132.071,23.442c0.52,0.217,1.234,0.324,2.145,0.324
		c0.884,0,1.596-0.107,2.139-0.324c0.542-0.215,0.814-0.559,0.814-1.026c0-0.433-0.271-0.759-0.814-0.98
		c-0.543-0.222-1.255-0.332-2.139-0.332c-0.911,0-1.625,0.11-2.145,0.332s-0.78,0.548-0.78,0.98
		C131.291,22.884,131.551,23.228,132.071,23.442z"/>
	<path fill="#0080C5" d="M147.106,13.127c-0.019,0.893-0.126,1.759-0.324,2.601s-0.495,1.645-0.891,2.408
		c-0.442,0.854-1,1.644-1.676,2.367c-0.677,0.722-1.47,1.359-2.381,1.912c-0.138-0.13-0.338-0.298-0.601-0.504
		c-0.263-0.207-0.485-0.37-0.669-0.49c0.81-0.423,1.525-0.911,2.146-1.462c0.621-0.553,1.139-1.161,1.552-1.822
		c0.34-0.552,0.61-1.139,0.808-1.76c0.197-0.621,0.32-1.272,0.365-1.953h-4.195v-1.297H147.106z M149.342,24.706V12.382h1.491
		v12.324H149.342z"/>
	<path fill="#0080C5" d="M157.125,16.508c0.21,0.303,0.464,0.575,0.758,0.814c0.286,0.249,0.598,0.455,0.939,0.621
		c0.34,0.166,0.676,0.291,1.007,0.374c-0.156,0.176-0.309,0.355-0.462,0.537c-0.152,0.185-0.288,0.359-0.408,0.525
		c-0.571-0.175-1.117-0.463-1.641-0.863c-0.525-0.4-0.961-0.84-1.312-1.318c-0.147,0.286-0.333,0.56-0.558,0.822
		c-0.227,0.261-0.472,0.508-0.738,0.739c-0.274,0.22-0.565,0.422-0.869,0.605c-0.304,0.186-0.603,0.337-0.897,0.456
		c-0.138-0.156-0.304-0.333-0.497-0.531c-0.193-0.198-0.381-0.379-0.565-0.544c0.369-0.111,0.735-0.265,1.104-0.463
		c0.368-0.197,0.703-0.434,1.007-0.71c0.304-0.276,0.559-0.584,0.768-0.924c0.206-0.34,0.337-0.713,0.391-1.118h-2.4v-1.214h6.418
		v1.214h-2.444C156.78,15.878,156.912,16.206,157.125,16.508z M155.144,20.773c0.759-0.451,1.857-0.676,3.292-0.676
		c1.436,0,2.53,0.225,3.285,0.676c0.754,0.451,1.131,1.025,1.131,1.725c0,0.717-0.377,1.298-1.131,1.737
		c-0.754,0.442-1.849,0.663-3.285,0.663c-1.435,0-2.532-0.221-3.292-0.663c-0.758-0.441-1.137-1.021-1.137-1.737
		C154.006,21.798,154.385,21.224,155.144,20.773z M154.117,13.486v-1.159h3.752v1.159H154.117z M156.386,23.436
		c0.52,0.203,1.207,0.305,2.063,0.305c0.828,0,1.498-0.101,2.014-0.305c0.517-0.203,0.774-0.51,0.774-0.924
		c0-0.405-0.258-0.714-0.774-0.925c-0.515-0.211-1.186-0.317-2.014-0.317c-0.856,0-1.543,0.106-2.063,0.317s-0.779,0.52-0.779,0.925
		C155.606,22.926,155.868,23.232,156.386,23.436z M161.237,20.068v-2.911h-1.918v-1.229h1.918v-3.561h1.49v7.7H161.237z"/>
	<path fill="#0080C5" d="M168.668,15.901c0.16,0.35,0.37,0.663,0.626,0.939c0.286,0.332,0.622,0.604,1.008,0.821
		s0.764,0.38,1.132,0.491c-0.185,0.184-0.366,0.381-0.546,0.594c-0.18,0.21-0.314,0.372-0.407,0.482
		c-0.221-0.083-0.483-0.216-0.787-0.4c-0.303-0.185-0.606-0.4-0.912-0.649c-0.229-0.184-0.444-0.381-0.641-0.593
		c-0.198-0.211-0.361-0.428-0.49-0.649c-0.11,0.267-0.286,0.537-0.524,0.807c-0.238,0.271-0.505,0.531-0.799,0.779
		c-0.249,0.211-0.511,0.407-0.788,0.587c-0.275,0.18-0.543,0.324-0.801,0.435c-0.11-0.111-0.274-0.266-0.496-0.462
		c-0.222-0.198-0.428-0.38-0.622-0.546c0.47-0.166,0.916-0.388,1.339-0.668c0.422-0.281,0.791-0.61,1.104-0.986
		c0.249-0.305,0.445-0.638,0.588-1c0.143-0.364,0.213-0.757,0.213-1.18v-0.525h-2.291v-1.27h6.155v1.27h-2.306v0.565
		C168.427,15.165,168.507,15.552,168.668,15.901z M166.108,21.387c0.203-0.307,0.497-0.578,0.884-0.806
		c0.386-0.222,0.852-0.396,1.401-0.525c0.546-0.128,1.166-0.194,1.856-0.194c0.689,0,1.308,0.063,1.856,0.194
		c0.547,0.128,1.014,0.303,1.399,0.525c0.386,0.229,0.684,0.499,0.89,0.806c0.208,0.308,0.311,0.646,0.311,1.015
		c0,0.735-0.398,1.339-1.194,1.809c-0.796,0.469-1.884,0.702-3.264,0.702s-2.465-0.231-3.256-0.696
		c-0.792-0.465-1.188-1.069-1.188-1.814C165.805,22.032,165.905,21.694,166.108,21.387z M167.661,22.945
		c0.143,0.17,0.343,0.311,0.601,0.42c0.258,0.121,0.557,0.213,0.897,0.277c0.34,0.063,0.708,0.096,1.104,0.096
		c0.395,0,0.768-0.029,1.119-0.09c0.349-0.06,0.654-0.146,0.911-0.256c0.258-0.11,0.46-0.248,0.606-0.413
		c0.148-0.165,0.222-0.354,0.222-0.565c0-0.433-0.276-0.767-0.828-1c-0.553-0.235-1.228-0.352-2.028-0.352
		c-0.396,0-0.767,0.03-1.111,0.09c-0.345,0.06-0.642,0.145-0.891,0.255c-0.258,0.111-0.457,0.246-0.6,0.409
		c-0.143,0.161-0.213,0.347-0.213,0.558C167.447,22.584,167.518,22.776,167.661,22.945z M172.995,19.834v-3.492h-2.346v-1.27h2.346
		v-2.705h1.462v7.466L172.995,19.834L172.995,19.834z"/>
	<path fill="#0080C5" d="M182.297,13.127c-0.02,0.893-0.127,1.759-0.324,2.601s-0.495,1.645-0.891,2.408
		c-0.442,0.854-1.001,1.644-1.677,2.367c-0.676,0.722-1.47,1.359-2.381,1.912c-0.138-0.13-0.339-0.298-0.601-0.504
		c-0.263-0.207-0.484-0.37-0.669-0.49c0.81-0.423,1.524-0.911,2.146-1.462c0.621-0.553,1.139-1.161,1.553-1.822
		c0.341-0.552,0.61-1.139,0.808-1.76c0.197-0.621,0.319-1.272,0.367-1.953h-4.197v-1.297H182.297z M184.533,24.706V12.382h1.489
		v12.324H184.533z"/>
	<path fill="#FFFFFF" d="M194.061,19.287v-1.4h5.38v-1.773h1.669v1.773h5.377v1.4H194.061z M201.631,13.387
		c0.306,0.396,0.699,0.745,1.177,1.042c0.476,0.307,0.997,0.564,1.563,0.767c0.564,0.204,1.093,0.351,1.578,0.44
		c-0.178,0.188-0.361,0.39-0.55,0.604c-0.189,0.213-0.349,0.4-0.477,0.558c-0.389-0.08-0.813-0.209-1.274-0.388
		c-0.462-0.179-0.916-0.396-1.364-0.655c-0.416-0.238-0.802-0.504-1.154-0.798c-0.353-0.292-0.633-0.609-0.842-0.945
		c-0.219,0.357-0.499,0.681-0.841,0.967c-0.343,0.288-0.718,0.547-1.126,0.776c-0.416,0.238-0.859,0.447-1.326,0.625
		c-0.467,0.179-0.923,0.318-1.37,0.417c-0.12-0.139-0.278-0.322-0.479-0.552c-0.197-0.228-0.386-0.432-0.564-0.61
		c0.595-0.129,1.193-0.305,1.795-0.529c0.601-0.223,1.135-0.499,1.602-0.826c0.417-0.288,0.758-0.619,1.021-0.991
		c0.263-0.374,0.396-0.783,0.396-1.229v-0.507h1.774v0.507C201.169,12.548,201.322,12.989,201.631,13.387z M203.269,24.949v-3.056
		h-7.806v-1.4h9.46v4.456H203.269z"/>
	<path fill="#58595B" d="M210.428,18.413v-0.717h11.468v0.717H210.428z M212.953,12.997c0.746-0.428,1.813-0.642,3.203-0.642
		c0.699,0,1.315,0.062,1.85,0.186c0.532,0.125,0.983,0.284,1.352,0.477c0.368,0.203,0.646,0.437,0.835,0.703
		c0.189,0.268,0.282,0.544,0.282,0.828c0,0.608-0.371,1.117-1.11,1.525c-0.74,0.409-1.81,0.615-3.208,0.615
		c-1.39,0-2.456-0.206-3.203-0.615c-0.744-0.409-1.117-0.917-1.117-1.525C211.836,13.942,212.207,13.424,212.953,12.997z
		 M212.016,24.54v-2.855h7.383V20.29h-7.383v-0.703h8.295v2.786h-7.385v1.478h7.673v0.69L212.016,24.54L212.016,24.54z
		 M213.719,15.639c0.622,0.275,1.438,0.414,2.45,0.414c0.993,0,1.803-0.138,2.429-0.414c0.626-0.276,0.939-0.64,0.939-1.091
		c0-0.459-0.315-0.832-0.946-1.117c-0.631-0.286-1.441-0.428-2.436-0.428c-1.021,0-1.838,0.143-2.449,0.428
		c-0.612,0.285-0.918,0.658-0.918,1.117C212.788,15,213.098,15.363,213.719,15.639z"/>
	<path fill="#58595B" d="M225.58,23.01v-0.746h5.299V19.42h-3.657v-6.376h0.87v2.264h6.485v-2.264h0.884v6.376h-3.699v2.844h5.342
		v0.746H225.58z M234.577,16.011h-6.485v2.679h6.485V16.011z"/>
	<path fill="#58595B" d="M238.041,13.224h6.541v0.745h-2.857v1.255c0,0.663,0.072,1.274,0.215,1.836
		c0.143,0.561,0.361,1.076,0.655,1.545c0.305,0.516,0.686,0.986,1.146,1.415c0.46,0.428,1.003,0.82,1.629,1.18
		c-0.121,0.083-0.248,0.191-0.386,0.324c-0.138,0.133-0.249,0.247-0.332,0.338c-0.358-0.229-0.7-0.483-1.022-0.759
		c-0.32-0.276-0.62-0.575-0.895-0.896c-0.323-0.359-0.608-0.749-0.857-1.167c-0.247-0.417-0.455-0.861-0.621-1.331
		c-0.101,0.414-0.265,0.832-0.489,1.255s-0.49,0.833-0.794,1.229c-0.304,0.406-0.63,0.78-0.979,1.125
		c-0.35,0.344-0.7,0.641-1.049,0.889c-0.103-0.082-0.234-0.183-0.4-0.304c-0.166-0.119-0.317-0.22-0.455-0.304
		c0.588-0.359,1.112-0.775,1.572-1.25c0.46-0.474,0.852-0.987,1.174-1.539c0.32-0.561,0.564-1.166,0.73-1.814
		c0.166-0.648,0.249-1.331,0.249-2.049v-0.98h-2.775v-0.745H238.041z M247.163,12.438v4.83h1.947v0.787h-1.947v6.653h-0.91V12.438
		H247.163z"/>
</g>
</svg>
